<?xml version="1.0" encoding="UTF-8" standalone="no"?>
<svg
   width="1.7066702in"
   height="1.7066702in"
   viewBox="0 0 512.00004 512.00004"
   version="1.1"
   id="svg312"
   xmlns="http://www.w3.org/2000/svg"
   xmlns:svg="http://www.w3.org/2000/svg">
  <defs
     id="defs316" />
  <g
     id="g9315">
    <path
       id="Selection"
       fill="none"
       stroke="#000000"
       stroke-width="1"
       d="m 153,74 c 0,0 27,26 27,26 0,0 49,49 49,49 0,0 19,19 19,19 0,0 8,5.96 8,5.96 0,0 8,-5.96 8,-5.96 0,0 19,-19 19,-19 0,0 49,-49 49,-49 0,0 27,-26 27,-26 0,0 52,52 52,52 0,0 27,28 27,28 0,0 -75,75 -75,75 0,0 -19,19 -19,19 0,0 -5.96,8 -5.96,8 0,0 5.96,8 5.96,8 0,0 19,19 19,19 0,0 49,49 49,49 0,0 26,27 26,27 0,0 -52,52 -52,52 0,0 -28,27 -28,27 0,0 -75,-75 -75,-75 0,0 -19,-19 -19,-19 0,0 -8,-5.96 -8,-5.96 0,0 -8,5.96 -8,5.96 0,0 -19,19 -19,19 0,0 -49,49 -49,49 0,0 -27,26 -27,26 0,0 -52,-52 -52,-52 0,0 -27,-28 -27,-28 0,0 75,-75 75,-75 0,0 19,-19 19,-19 0,0 5.96,-8 5.96,-8 0,0 -5.96,-8 -5.96,-8 0,0 -19,-19 -19,-19 0,0 -49,-49 -49,-49 0,0 -26,-27 -26,-27 0,0 79,-79 79,-79 z" />
    <path
       style="fill:#000000;stroke-width:452.438"
       d="M 114.46946,23.365957 C 105.28101,31.893915 96.574735,40.92629 87.586329,49.663309 85.702593,51.407504 83.954047,53.401145 81.894832,54.898263 77.1694,50.864276 72.93654,46.279099 68.46251,41.970559 62.114188,35.771209 55.949402,29.375351 49.397036,23.39002 c -1.306695,-0.490164 -1.982746,1.402691 -2.94935,2.013193 -7.676438,7.67712 -15.352723,15.354391 -23.028959,23.031711 -0.579063,1.204819 1.167068,1.939878 1.696679,2.865652 9.785842,10.231346 19.986474,20.070751 29.679847,30.378953 0.108055,0.857674 -1.0769,1.584932 -1.595171,2.295024 -9.770672,10.189855 -20.04444,19.969137 -29.781355,30.218387 -0.352211,1.25319 1.290052,1.91747 1.877083,2.84477 7.621349,7.88326 15.397675,15.61482 23.107453,23.41133 1.242649,0.56042 2.015984,-1.21386 2.975414,-1.78238 10.025158,-9.59423 19.640196,-19.61302 29.749927,-29.11752 0.450651,-0.53075 0.995613,-0.78984 1.456888,-0.10977 7.899399,7.36038 15.479777,15.25784 23.210458,22.86944 2.82864,2.74508 5.53339,5.67504 8.43933,8.30476 1.21071,0.22989 1.86102,-1.44173 2.80065,-2.03069 7.90432,-7.61505 15.62915,-15.41317 23.38567,-23.1779 0.57777,-1.20522 -1.16739,-1.94069 -1.69668,-2.86734 -9.65492,-10.08468 -19.70038,-19.791493 -29.29483,-29.933572 -0.8806,-0.655169 -0.051,-1.297032 0.45171,-1.860478 9.89271,-10.56977 20.52029,-20.503061 30.48956,-31.026974 0.53543,-1.195179 -1.13275,-1.883485 -1.67707,-2.757738 -7.66786,-7.938862 -15.49709,-15.719696 -23.25723,-23.568014 -0.36023,-0.225863 -0.59516,-0.235019 -0.9676,-0.02491 z"
       id="path558"
       transform="scale(3.1249937)" />
    <path
       style="fill:#000000;stroke-width:452.438"
       d="m 48.733395,22.560467 c -2.438401,1.804328 -4.460887,4.170953 -6.696006,6.232867 -6.280938,6.281179 -12.708778,12.429138 -18.73138,18.960218 -0.941207,0.748253 -0.722702,2.028032 0.141425,2.737313 8.338291,8.958022 17.116131,17.509006 25.634484,26.288429 1.571415,1.737643 3.493407,3.330915 4.771487,5.251897 -9.972112,10.624753 -20.558223,20.659909 -30.48576,31.325449 -0.832385,0.63644 -0.933883,1.78248 -0.0933,2.46797 6.205512,6.83997 12.880938,13.24106 19.354265,19.82612 2.016255,1.86522 3.825746,4.02774 6.062143,5.62026 1.443617,-0.0153 2.324518,-1.56101 3.408923,-2.33423 10.067501,-9.56764 19.755959,-19.53922 29.823017,-29.09591 10.171811,9.63026 19.952057,19.84794 30.129337,29.54725 0.94883,0.61577 1.82756,2.38087 3.152,1.73176 3.57939,-2.84847 6.6328,-6.31357 9.94999,-9.45901 5.17013,-5.24158 10.58307,-10.2573 15.52003,-15.72141 0.98294,-0.85606 0.27728,-2.08203 -0.50312,-2.78102 -9.61398,-10.3207 -19.80358,-20.092849 -29.45789,-30.376198 -1.16561,-0.710616 -0.31699,-1.448734 0.39116,-2.115957 9.62611,-10.211165 19.80859,-19.896938 29.36932,-30.176245 0.8272,-0.634829 0.93527,-1.775515 0.10048,-2.462907 -6.1266,-6.774505 -12.73713,-13.097264 -19.13517,-19.613733 -2.09666,-1.94037 -3.97089,-4.199098 -6.30741,-5.843203 -1.35903,-0.01623 -2.17085,1.499721 -3.1997,2.194155 -10.0916,9.524619 -19.725647,19.532651 -29.833391,29.030447 -0.7994,-0.06899 -1.57521,-1.27007 -2.318637,-1.825225 C 69.960532,42.576766 60.53906,32.760926 50.55839,23.532708 50.016802,23.140669 49.478079,22.439599 48.733395,22.560467 Z"
       id="path560"
       transform="scale(3.1249937)" />
    <path
       style="fill:#000000;stroke-width:452.438"
       d="m 114.76878,21.89007 c -1.93267,0.632932 -3.19764,2.476194 -4.74443,3.716528 C 100.55629,34.606686 91.447274,43.975479 81.888922,52.87525 71.757795,43.400861 62.212261,33.281841 51.98376,23.895359 c -1.045704,-0.700965 -2.084942,-2.34888 -3.514641,-1.880329 -3.359006,2.449671 -6.14362,5.612901 -9.183206,8.439228 -5.751062,5.760985 -11.634053,11.415616 -17.032782,17.510375 -0.895983,1.66267 0.798342,3.031275 1.782801,4.153253 9.426704,10.150338 19.440709,19.760191 28.892088,29.864756 -9.740255,10.132878 -19.845726,19.915928 -29.413308,30.212948 -0.846874,0.94373 -2.170874,2.3198 -1.113401,3.60622 3.320155,4.04045 7.204887,7.5893 10.803536,11.38002 4.825589,4.76195 9.411574,9.79307 14.568545,14.20315 1.0278,1.12523 2.524615,0.31596 3.355121,-0.60624 10.415623,-9.78893 20.43805,-19.99957 30.763786,-29.87657 10.3059,9.77173 20.136471,20.03247 30.527551,29.71531 0.86591,0.84647 2.24204,1.93401 3.38239,0.87262 4.7971,-4.03144 9.0621,-8.65955 13.59127,-12.98488 4.02758,-4.1153 8.35885,-7.97633 11.97205,-12.47164 1.2496,-1.39953 -0.35295,-2.94668 -1.26903,-3.9827 -9.44912,-10.14905 -19.48598,-19.806395 -28.91615,-29.921746 -0.28963,-0.610845 0.91055,-1.166698 1.19683,-1.729185 9.28725,-9.723913 19.00212,-19.043678 28.11447,-28.936417 0.85454,-0.90019 1.96876,-2.300552 0.89076,-3.479902 -3.90513,-4.687291 -8.4205,-8.833244 -12.62153,-13.252099 -4.24207,-4.160039 -8.20554,-8.648736 -12.82612,-12.398189 -0.34596,-0.227636 -0.73504,-0.467613 -1.16601,-0.443272 z"
       id="path562"
       transform="scale(3.1249937)" />
    <path
       style="fill:#000000;stroke-width:452.438"
       d="m 114.82914,21.24458 c -2.20668,0.485101 -3.63287,2.527652 -5.32274,3.881419 C 100.19551,33.895742 91.294276,43.09229 81.90201,51.769178 71.596709,42.148324 61.891737,31.886326 51.404007,22.452815 50.425294,21.402988 48.752643,20.770059 47.545846,21.851231 43.312111,25.173407 39.703549,29.216068 35.809716,32.918128 31.1263,37.713643 26.14694,42.255682 21.86094,47.418353 c -1.234964,1.609995 -0.01813,3.659 1.27747,4.79241 9.387859,10.083942 19.28415,19.695297 28.691139,29.749082 -9.790883,10.291932 -20.041614,20.158425 -29.61399,30.662225 -1.125873,1.08752 -1.120227,2.89792 -0.03293,4.01183 4.101999,4.83575 8.770634,9.16268 13.17237,13.72232 4.046132,3.90483 7.804489,8.1468 12.189158,11.67973 1.315007,1.15826 3.11122,0.34106 4.117792,-0.79747 10.24206,-9.57451 20.089493,-19.56185 30.218951,-29.25472 10.341776,9.77966 20.24339,20.06606 30.70782,29.73388 1.0301,1.10358 2.77792,1.16348 3.87842,0.12539 4.75499,-4.03455 9.04562,-8.59198 13.54252,-12.90917 4.00957,-4.10201 8.3388,-7.94253 11.87938,-12.47136 1.21755,-1.34184 0.2997,-3.17128 -0.78107,-4.26533 -6.7839,-7.58787 -14.11534,-14.666959 -21.15899,-22.011356 -2.62673,-2.779878 -5.44725,-5.424864 -7.87235,-8.372881 9.76263,-10.27453 20.01501,-20.084986 29.54011,-30.582858 1.11333,-1.076518 1.15547,-2.873353 0.0578,-3.980166 -4.44722,-5.186268 -9.42305,-9.897905 -14.16196,-14.815519 -3.68894,-3.59339 -7.12915,-7.48991 -11.19661,-10.666326 -0.43942,-0.290304 -0.94143,-0.571292 -1.48687,-0.523484 z"
       id="path564"
       transform="scale(3.1249937)" />
    <path
       style="fill:#ff9999;fill-opacity:1;stroke-width:452.448;stroke-dasharray:none"
       d="m 114.74176,25.740632 c -7.85394,7.180425 -15.30362,14.793992 -23.009106,22.133619 -2.593501,2.375125 -4.956926,5.043271 -7.794545,7.129553 -2.046558,1.213069 -4.505229,0.153549 -5.921278,-1.527392 C 68.26491,44.334474 58.968273,34.713319 49.081681,25.714879 41.63728,32.619866 34.50226,39.831886 27.456378,47.097362 c -0.4871,0.692928 -1.653755,1.42015 -1.62686,2.138919 9.391021,10.185458 19.365799,19.819515 28.784205,29.976962 1.311259,1.303653 0.820775,3.233033 0.468179,4.821119 -3.243649,3.850399 -6.960706,7.295935 -10.42535,10.952211 -6.366758,6.525627 -12.724514,12.975907 -18.926897,19.685107 6.94806,7.58305 14.222765,14.81489 21.668013,21.96915 0.854598,0.76482 1.784165,2.18156 2.647478,0.65661 9.777828,-9.11013 19.058791,-18.74585 28.940552,-27.74324 1.771959,-1.8135 4.893543,-1.58494 6.463276,0.37564 9.788776,9.34833 19.290846,18.99567 29.174156,28.24458 7.75699,-7.20472 15.33116,-14.62052 22.58852,-22.3292 1.09567,-0.73495 0.75578,-1.49649 -0.17093,-2.21744 -9.04438,-9.89233 -18.77352,-19.138039 -27.80779,-29.037005 -1.12887,-1.115932 -1.00608,-2.678991 -0.60885,-4.084924 0.32853,-1.832116 2.23674,-2.815499 3.31017,-4.219948 8.74186,-9.026962 17.63735,-17.871491 26.16629,-27.09826 -7.03149,-7.688079 -14.39314,-15.021703 -21.86695,-22.232198 -0.48134,-0.363772 -0.98727,-1.110927 -1.49183,-1.214813 z"
       id="path637"
       transform="scale(3.1249937)" />
  </g>
</svg>
