<?xml version="1.0" encoding="UTF-8" standalone="no"?>
<svg
   width="1.7070001in"
   height="1.7066702in"
   viewBox="0 0 512.09904 512.00004"
   version="1.1"
   id="svg312"
   xmlns="http://www.w3.org/2000/svg"
   xmlns:svg="http://www.w3.org/2000/svg">
  <defs
     id="defs316" />
  <g
     id="g9395">
    <path
       id="Selection"
       fill="none"
       stroke="#000000"
       stroke-width="1"
       d="m 153,74 c 0,0 27,26 27,26 0,0 49,49 49,49 0,0 19,19 19,19 0,0 8,5.96 8,5.96 0,0 8,-5.96 8,-5.96 0,0 19,-19 19,-19 0,0 49,-49 49,-49 0,0 27,-26 27,-26 0,0 52,52 52,52 0,0 27,28 27,28 0,0 -75,75 -75,75 0,0 -19,19 -19,19 0,0 -5.96,8 -5.96,8 0,0 5.96,8 5.96,8 0,0 19,19 19,19 0,0 49,49 49,49 0,0 26,27 26,27 0,0 -52,52 -52,52 0,0 -28,27 -28,27 0,0 -75,-75 -75,-75 0,0 -19,-19 -19,-19 0,0 -8,-5.96 -8,-5.96 0,0 -8,5.96 -8,5.96 0,0 -19,19 -19,19 0,0 -49,49 -49,49 0,0 -27,26 -27,26 0,0 -52,-52 -52,-52 0,0 -27,-28 -27,-28 0,0 75,-75 75,-75 0,0 19,-19 19,-19 0,0 5.96,-8 5.96,-8 0,0 -5.96,-8 -5.96,-8 0,0 -19,-19 -19,-19 0,0 -49,-49 -49,-49 0,0 -26,-27 -26,-27 0,0 79,-79 79,-79 z" />
    <path
       style="fill:#000000;stroke-width:1413.87"
       d="m 357.71634,73.018468 c -28.71385,26.649815 -55.9209,54.875932 -84.00961,82.179062 -5.88667,5.4506 -11.35086,11.68071 -17.7859,16.3592 -14.76694,-12.60619 -27.9946,-26.93484 -41.97592,-40.399 -19.83846,-19.37293 -39.10338,-39.359943 -59.57948,-58.064065 -4.08342,-1.531759 -6.19607,4.383401 -9.2167,6.291216 -23.98882,23.990949 -47.977167,47.982379 -71.965356,71.973949 -1.809568,3.76505 3.64708,6.06211 5.302112,8.95515 30.580694,31.97289 62.457604,62.72097 92.749334,94.93403 0.33767,2.68023 -3.36531,4.95291 -4.9849,7.17194 -30.53329,31.84323 -62.63875,62.40343 -93.066546,94.43227 -1.100657,3.91621 4.031405,5.99208 5.865873,8.88989 23.816663,24.63513 48.117633,48.79621 72.210643,73.16026 3.88327,1.7513 6.29994,-3.79331 9.29815,-5.56993 31.32856,-29.98191 61.37549,-61.29057 92.96834,-90.99207 1.40828,-1.65859 3.11128,-2.46824 4.55276,-0.34303 24.68557,23.00114 48.37421,47.68066 72.53254,71.46686 8.83948,8.57836 17.29181,17.73446 26.37285,25.95232 3.78346,0.71841 5.81568,-4.5054 8.75201,-6.34589 24.70095,-23.79699 48.841,-48.16606 73.08008,-72.43079 1.80552,-3.76631 -3.64809,-6.06465 -5.30212,-8.96042 -30.17156,-31.51457 -61.56356,-61.84829 -91.54616,-93.54223 -2.75187,-2.0474 -0.15937,-4.05321 1.41159,-5.81398 30.91466,-33.03046 64.12578,-64.07194 95.27969,-96.9591 1.67321,-3.73493 -3.53984,-5.88588 -5.24084,-8.61791 -23.96201,-24.8089 -48.42831,-49.123953 -72.67869,-73.649897 -1.12572,-0.705821 -1.85988,-0.734433 -3.02375,-0.07784 z"
       id="path558" />
    <path
       style="fill:#000000;stroke-width:1413.87"
       d="m 152.29155,70.501317 c -7.61999,5.638514 -13.94024,13.034202 -20.92497,19.47767 -19.6279,19.628643 -39.714855,38.840983 -58.535449,59.250563 -2.941266,2.33829 -2.258439,6.33759 0.441953,8.55409 26.057106,27.99376 53.487806,54.71553 80.107596,82.15117 4.91067,5.43012 10.91688,10.40909 14.91087,16.41215 -31.16279,33.20228 -64.24432,64.56208 -95.267807,97.89183 -2.601197,1.98887 -2.918378,5.57023 -0.291562,7.71239 19.392186,21.37486 40.252849,41.37823 60.481959,61.9565 6.30078,5.8288 11.95543,12.58666 18.94416,17.56327 4.51129,-0.0478 7.2641,-4.87814 10.65286,-7.29445 31.46088,-29.89882 61.73725,-61.05994 93.19674,-90.92454 31.78684,30.09451 62.35005,62.02469 94.15399,92.33497 2.96509,1.92428 5.71111,7.44021 9.84998,5.41174 11.18557,-8.90145 20.72746,-19.72986 31.09365,-29.55934 16.15663,-16.37991 33.07203,-32.054 48.5,-49.12931 3.07168,-2.67518 0.8665,-6.50633 -1.57225,-8.69067 -30.04362,-32.25212 -61.88606,-62.79003 -92.05572,-94.92543 -3.64252,-2.22067 -0.99059,-4.52728 1.22238,-6.61235 30.08153,-31.90983 61.90171,-62.17781 91.77894,-94.30058 2.58499,-1.98383 2.92271,-5.54847 0.31399,-7.69656 -19.14558,-21.17029 -39.80345,-40.92887 -59.79728,-61.292797 -6.55205,-6.063644 -12.40901,-13.122154 -19.71062,-18.259972 -4.24696,-0.05072 -6.78389,4.686619 -9.99904,6.85672 -31.53619,29.764379 -61.64252,61.039409 -93.22916,90.719969 -2.49812,-0.2156 -4.92252,-3.96897 -7.24573,-5.70382 -30.68481,-29.3524 -60.12685,-60.02684 -91.31638,-88.864966 -1.69246,-1.225119 -3.37596,-3.415958 -5.7031,-3.038247 z"
       id="path560" />
    <path
       style="fill:#000000;stroke-width:1413.87"
       d="m 358.65171,68.406331 c -6.03958,1.977908 -9.9926,7.73809 -14.82631,11.614126 -29.58763,28.125223 -58.05324,57.402633 -87.92303,85.214363 -31.65971,-29.6074 -61.48945,-61.22928 -93.45345,-90.561974 -3.26782,-2.190511 -6.51543,-7.340235 -10.98323,-5.876016 -10.49687,7.655206 -19.19877,17.54028 -28.69746,26.372534 -17.97203,18.003046 -36.356342,35.673726 -53.227336,54.719816 -2.799941,5.19583 2.494814,9.47271 5.571242,12.97889 29.458394,31.71974 60.752094,61.75047 90.287594,93.32717 -30.43824,31.66518 -62.01777,62.23715 -91.916403,94.41527 -2.646476,2.94915 -6.783968,7.24936 -3.479371,11.26942 10.375463,12.62638 22.515226,23.71651 33.760984,35.56249 15.07993,14.88106 29.41111,30.60328 45.52661,44.38475 3.21187,3.51634 7.8894,0.98737 10.48473,-1.89449 32.54876,-30.59035 63.86878,-62.49853 96.13664,-93.3641 32.20587,30.5366 62.92634,62.60135 95.3984,92.86016 2.70597,2.64521 7.00636,6.04377 10.56995,2.72693 14.99091,-12.59822 28.31901,-27.06104 42.47263,-40.57767 12.58617,-12.86028 26.12136,-24.92598 37.41258,-38.97379 3.905,-4.37353 -1.10296,-9.20836 -3.96571,-12.44592 -29.52844,-31.71571 -60.89356,-61.89486 -90.36278,-93.50526 -0.90509,-1.90889 2.84546,-3.64593 3.74008,-5.4037 29.0226,-30.38716 59.38151,-59.51137 87.85754,-90.42612 2.67044,-2.81308 6.15237,-7.18921 2.78362,-10.87467 -12.2035,-14.64775 -26.31401,-27.60383 -39.4422,-41.41272 -13.25644,-13.0001 -25.64226,-27.02725 -40.08154,-38.744267 -1.08112,-0.711361 -2.297,-1.461288 -3.64378,-1.385222 z"
       id="path562" />
    <path
       style="fill:#000000;stroke-width:1413.87"
       d="m 358.84034,66.389179 c -6.89586,1.515937 -11.3527,7.898896 -16.63353,12.12941 -29.09647,27.405391 -56.91277,56.144541 -86.26354,83.259771 -32.20401,-30.06511 -62.53198,-62.133792 -95.30607,-91.613455 -3.05847,-3.280702 -8.2855,-5.258601 -12.05673,-1.879946 -13.2304,10.381779 -24.50713,23.015069 -36.67533,34.583981 -14.635649,14.98596 -30.196117,29.1798 -43.58984,45.31311 -3.859255,5.03123 -0.05666,11.43436 3.992085,14.97626 29.337005,31.51225 60.262845,61.54767 89.659625,92.96569 -30.59644,32.16222 -62.629913,62.99495 -92.543528,95.81926 -3.518346,3.39849 -3.500702,9.05598 -0.102906,12.53694 12.818721,15.11169 27.408176,28.63332 41.163574,42.88217 12.64414,12.20257 24.38898,25.45869 38.09104,36.49908 4.10939,3.61955 9.72254,1.06581 12.86808,-2.49209 32.00637,-29.92028 62.77953,-61.13066 94.43403,-91.42082 32.31798,30.56138 63.26046,62.70632 95.96174,92.91819 3.21906,3.44868 8.68098,3.63587 12.12004,0.39185 14.85931,-12.60795 28.2675,-26.84989 42.32029,-40.34108 12.52988,-12.81876 26.0587,-24.82036 37.12299,-38.97292 3.80483,-4.19324 0.93656,-9.91023 -2.44084,-13.32913 -21.19965,-23.71205 -44.11035,-45.83416 -66.12171,-68.78535 -8.20852,-8.6871 -17.02263,-16.95267 -24.60105,-26.1652 30.50816,-32.10784 62.54678,-62.76545 92.31266,-95.57124 3.47915,-3.36411 3.61084,-8.97921 0.18062,-12.43799 -13.89753,-16.20706 -29.44697,-30.93089 -44.25603,-46.29841 -11.52792,-11.229317 -22.27855,-23.405917 -34.98934,-33.332197 -1.37318,-0.907198 -2.94196,-1.785284 -4.64646,-1.635884 z"
       id="path564" />
    <path
       style="fill:#99ffff;fill-opacity:1;stroke-width:1413.87"
       d="m 358.56728,80.439313 c -24.54352,22.438787 -47.82372,46.231127 -71.90331,69.167417 -8.10468,7.42225 -15.49037,15.76019 -24.35791,22.27981 -6.39548,3.79083 -14.07881,0.47984 -18.50395,-4.77309 -30.4747,-28.5685 -59.52663,-58.63455 -90.42217,-86.754615 -23.2637,21.578045 -45.56059,44.115555 -67.578932,66.820125 -1.522184,2.1654 -5.167974,4.43796 -5.083927,6.68411 29.346879,31.82949 60.517999,61.93586 89.950459,93.67782 4.09768,4.0739 2.56492,10.1032 1.46306,15.06596 -10.13639,12.03247 -21.75217,22.79975 -32.57916,34.22559 -19.89607,20.39255 -39.764022,40.54963 -59.14643,61.51584 21.71264,23.69698 44.44605,46.29644 67.7124,68.65345 2.67062,2.39006 5.57551,6.81736 8.27336,2.05191 30.55565,-28.4691 59.5586,-58.58067 90.43904,-86.69746 5.53736,-5.66717 15.29229,-4.95292 20.1977,1.17388 30.58986,29.21347 60.28377,59.36135 91.16905,88.26413 24.24054,-22.5147 47.90978,-45.68903 70.58898,-69.77861 3.42396,-2.29671 2.36181,-4.67652 -0.53415,-6.92948 -28.26363,-30.91347 -58.66714,-59.80625 -86.89917,-90.74046 -3.52771,-3.48728 -3.144,-8.37183 -1.90265,-12.76536 1.02665,-5.72535 6.98979,-8.79842 10.34426,-13.18731 27.31825,-28.2092 55.1166,-55.8483 81.76949,-84.6819 -21.97336,-24.02519 -44.97847,-46.94272 -68.33408,-69.475474 -1.50419,-1.136785 -3.08522,-3.47164 -4.66196,-3.796283 z"
       id="path637" />
  </g>
</svg>
