<?xml version="1.0" encoding="UTF-8" standalone="no"?>
<svg
   width="3.4133301in"
   height="3.4133301in"
   viewBox="0 0 1024 1024"
   version="1.1"
   id="svg7998"
   xmlns="http://www.w3.org/2000/svg"
   xmlns:svg="http://www.w3.org/2000/svg">
  <defs
     id="defs8002" />
  <path
     id="Selection"
     fill="none"
     stroke="#000000"
     stroke-width="1"
     d="m 110,210 c 0,0 804,0 804,0 0,0 0,152 0,152 0,0 -804,0 -804,0 0,0 0,-152 0,-152 z m 0,227 c 0,0 804,0 804,0 0,0 0,152 0,152 0,0 -804,0 -804,0 0,0 0,-152 0,-152 z m 0,229 c 0,0 804,0 804,0 0,0 0,152 0,152 0,0 -804,0 -804,0 0,0 0,-152 0,-152 z" />
  <path
     style="fill:#000000;stroke-width:305.611"
     d="m 108.5686,208.84433 c -1.55772,5.87274 -0.20037,12.34796 -0.65567,18.44855 0,44.80562 0,89.61127 0,134.41687 1.4476,4.07116 7.01114,1.44075 10.29287,2.18735 265.23132,0 530.46264,0 795.69395,0 4.07113,-1.4476 1.44075,-7.01113 2.18735,-10.29289 0,-47.73262 0,-95.46525 0,-143.19788 -1.44766,-4.07113 -7.01116,-1.44074 -10.29289,-2.18733 -265.23131,0 -530.46263,0 -795.69394,0 -0.51056,0.20844 -1.02111,0.41688 -1.53167,0.62533 z"
     id="path8121" />
  <path
     style="fill:#000000;stroke-width:305.611"
     d="m 241.66095,205.65172 c -44.11731,0.20587 -88.25118,-0.28357 -132.35752,0.66622 -4.79489,1.07499 -3.04023,7.35247 -3.57964,10.9049 -0.2655,48.62795 0.14084,97.25796 0.16275,145.88666 1.97473,4.66626 8.31259,2.22563 12.27175,2.92257 213.97603,0.73722 427.95439,0.49403 641.93141,0.48297 51.42167,-0.19594 102.85625,0.25719 154.26915,-0.68653 4.64913,-0.66297 3.01669,-6.79407 3.55712,-10.07304 0.36582,-47.5695 0.39454,-95.15089 -0.24375,-142.71818 0.245,-2.79899 -0.0434,-7.33578 -4.01925,-6.57555 -111.45545,-0.84759 -222.91765,-0.55433 -334.37601,-0.74514 -112.5387,-0.0586 -225.0774,-0.11197 -337.61612,-0.0649 z"
     id="path8123" />
  <path
     style="fill:#000000;stroke-width:305.611"
     d="m 107.24142,204.46834 c -3.15289,2.18999 -4.43467,5.56371 -3.73288,9.34562 0.0128,48.41293 -0.66484,96.83737 0.0948,145.2436 -0.0883,3.56119 0.66482,8.57086 5.21589,8.69045 45.74472,1.01038 91.51721,0.49087 137.27309,0.70187 223.09278,0.0619 446.18559,-0.10906 669.27833,-0.16218 5.87073,-2.40226 3.9691,-9.96648 4.5926,-14.96286 0.767,-46.89078 0.76219,-93.80735 -0.28531,-140.69173 0.39075,-4.15569 -1.77572,-10.06386 -7.00914,-8.80452 -267.96041,0 -535.92082,0 -803.88123,0 -0.51539,0.21328 -1.03078,0.42656 -1.54617,0.63984 z"
     id="path8125" />
  <path
     style="fill:#000000;stroke-width:305.611"
     d="m 106.6372,202.02111 c -2.75981,2.33819 -6.33922,4.7607 -5.14116,8.94987 0,51.11082 0,102.22163 0,153.33246 1.66823,5.22323 7.49383,6.10229 12.22955,5.84563 239.46347,0.39291 478.92798,0.4476 718.3918,0.34257 28.29228,-0.25844 56.61978,0.34028 84.88921,-0.78585 5.63957,-1.70328 4.53694,-8.95872 5.06338,-13.53167 0.76131,-42.73619 0.35862,-85.48987 0.26437,-128.23193 -0.48918,-7.58314 0.6556,-15.5924 -1.8595,-22.87491 -2.75303,-4.61262 -9.02376,-2.3524 -13.3971,-3.07255 -109.68364,-0.8152 -219.37325,-0.38073 -329.05938,-0.52672 -156.64115,-0.008 -313.28232,-0.002 -469.92348,-0.004 -0.48592,0.18556 -0.97185,0.37116 -1.45778,0.55673 z"
     id="path8127" />
  <path
     style="fill:#000000;stroke-width:305.611"
     d="m 108.5686,435.79948 c -1.55772,5.87273 -0.20037,12.34795 -0.65567,18.44855 0,44.80564 0,89.61124 0,134.41688 1.4476,4.07113 7.01114,1.44075 10.29287,2.18734 265.23132,0 530.46264,0 795.69395,0 4.07113,-1.44762 1.44075,-7.01116 2.18735,-10.29288 0,-47.73264 0,-95.46525 0,-143.19789 -1.44766,-4.07113 -7.01116,-1.44075 -10.29289,-2.18734 -265.23131,0 -530.46263,0 -795.69394,0 -0.51056,0.20843 -1.02111,0.4169 -1.53167,0.62534 z"
     id="path8129" />
  <path
     style="fill:#000000;stroke-width:305.611"
     d="m 241.66095,432.60685 c -44.11731,0.20594 -88.25118,-0.28343 -132.35752,0.66625 -4.79489,1.07497 -3.04023,7.35245 -3.57964,10.90489 -0.2655,48.62795 0.14084,97.25797 0.16275,145.88667 1.97473,4.66625 8.31259,2.2256 12.27175,2.92253 213.97603,0.73722 427.95439,0.49404 641.93141,0.483 51.42167,-0.19593 102.85625,0.25688 154.26915,-0.68653 4.64913,-0.663 3.01669,-6.7941 3.55712,-10.07304 0.36582,-47.56951 0.39454,-95.1509 -0.24375,-142.7182 0.245,-2.79897 -0.0434,-7.33575 -4.01925,-6.57554 -111.45545,-0.84759 -222.91765,-0.55434 -334.37601,-0.74512 -112.5387,-0.0588 -225.0774,-0.11188 -337.61612,-0.065 z"
     id="path8131" />
  <path
     style="fill:#000000;stroke-width:305.611"
     d="m 107.24142,431.42348 c -3.15289,2.19 -4.43467,5.56372 -3.73288,9.34563 0.0128,48.41292 -0.66484,96.83737 0.0948,145.24361 -0.0883,3.56116 0.66482,8.57085 5.21589,8.69044 45.74472,1.01035 91.51721,0.49088 137.27309,0.70188 223.09278,0.0622 446.18559,-0.10906 669.27833,-0.16219 5.87073,-2.40225 3.9691,-9.96648 4.5926,-14.96289 0.767,-46.89076 0.76219,-93.80731 -0.28531,-140.69169 0.39075,-4.1557 -1.77572,-10.06386 -7.00914,-8.80454 -267.96041,0 -535.92082,0 -803.88123,0 -0.51539,0.21343 -1.03078,0.42656 -1.54617,0.63984 z"
     id="path8133" />
  <path
     style="fill:#000000;stroke-width:305.611"
     d="m 106.6372,428.97626 c -2.75981,2.33819 -6.33922,4.76069 -5.14116,8.94988 0,51.1108 0,102.22163 0,153.33243 1.66823,5.22325 7.49383,6.10232 12.22955,5.84566 239.46347,0.39291 478.92798,0.44759 718.3918,0.34256 28.29228,-0.25844 56.61978,0.34028 84.88921,-0.78584 5.63957,-1.70332 4.53694,-8.95873 5.06338,-13.53167 0.76131,-42.7362 0.35862,-85.4899 0.26437,-128.23194 -0.48918,-7.58316 0.6556,-15.59242 -1.8595,-22.87489 -2.75303,-4.61263 -9.02376,-2.35241 -13.3971,-3.07257 -109.68364,-0.81522 -219.37325,-0.38072 -329.05938,-0.52672 -156.64115,-0.006 -313.28232,-0.002 -469.92348,-0.003 -0.48592,0.18562 -0.97185,0.37115 -1.45778,0.55672 z"
     id="path8135" />
  <path
     style="fill:#000000;stroke-width:305.611"
     d="m 108.5686,664.78101 c -1.55772,5.87273 -0.20037,12.34795 -0.65567,18.44855 0,44.80564 0,89.61124 0,134.41688 1.4476,4.07113 7.01114,1.44075 10.29287,2.18735 265.23132,0 530.46264,0 795.69395,0 4.07113,-1.44763 1.44075,-7.01117 2.18735,-10.29289 0,-47.73264 0,-95.46525 0,-143.19789 -1.44766,-4.07112 -7.01116,-1.44075 -10.29289,-2.18734 -265.23131,0 -530.46263,0 -795.69394,0 -0.51056,0.20844 -1.02111,0.41691 -1.53167,0.62534 z"
     id="path8137" />
  <path
     style="fill:#000000;stroke-width:305.611"
     d="m 241.66095,661.58839 c -44.11731,0.20593 -88.25118,-0.28344 -132.35752,0.66625 -4.79489,1.07497 -3.04023,7.35244 -3.57964,10.90488 -0.2655,48.62795 0.14084,97.25797 0.16275,145.88667 1.97473,4.66626 8.31259,2.2256 12.27175,2.92254 213.97603,0.73722 427.95439,0.49403 641.93141,0.483 51.42167,-0.19594 102.85625,0.25687 154.26915,-0.68653 4.64913,-0.66301 3.01669,-6.79411 3.55712,-10.07305 0.36582,-47.56951 0.39454,-95.1509 -0.24375,-142.7182 0.245,-2.79897 -0.0434,-7.33575 -4.01925,-6.57553 -111.45545,-0.8476 -222.91765,-0.55435 -334.37601,-0.74513 -112.5387,-0.0587 -225.0774,-0.11187 -337.61612,-0.065 z"
     id="path8139" />
  <path
     style="fill:#000000;stroke-width:305.611"
     d="m 107.24142,660.40501 c -3.15289,2.19 -4.43467,5.56372 -3.73288,9.34563 0.0128,48.41292 -0.66484,96.83738 0.0948,145.24361 -0.0883,3.56116 0.66482,8.57085 5.21589,8.69045 45.74472,1.01034 91.51721,0.49087 137.27309,0.70187 223.09278,0.0622 446.18559,-0.10906 669.27833,-0.16218 5.87073,-2.40226 3.9691,-9.96648 4.5926,-14.96289 0.767,-46.89077 0.76219,-93.80731 -0.28531,-140.6917 0.39075,-4.15569 -1.77572,-10.06386 -7.00914,-8.80454 -267.96041,0 -535.92082,0 -803.88123,0 -0.51539,0.21344 -1.03078,0.42656 -1.54617,0.63984 z"
     id="path8141" />
  <path
     style="fill:#000000;stroke-width:305.611"
     d="m 106.6372,657.95779 c -2.75981,2.33819 -6.33922,4.76069 -5.14116,8.94988 0,51.1108 0,102.22163 0,153.33243 1.66823,5.22325 7.49383,6.10232 12.22955,5.84566 239.46347,0.39291 478.92798,0.4476 718.3918,0.34256 28.29228,-0.25843 56.61978,0.34029 84.88921,-0.78584 5.63957,-1.70331 4.53694,-8.95873 5.06338,-13.53167 0.76131,-42.7362 0.35862,-85.48989 0.26437,-128.23193 -0.48918,-7.58317 0.6556,-15.59243 -1.8595,-22.87493 -2.75303,-4.6126 -9.02376,-2.35238 -13.3971,-3.07254 -109.68364,-0.81522 -219.37325,-0.38075 -329.05938,-0.52672 -156.64115,-0.006 -313.28232,-0.002 -469.92348,-0.003 -0.48592,0.18562 -0.97185,0.37116 -1.45778,0.55672 z"
     id="path8143" />
  <path
     style="fill:#99ffff;fill-opacity:1;stroke-width:1222.44"
     d="m 405.48286,670.43799 c -97.08294,0.47737 -194.38163,-0.55644 -291.24539,2.04222 -2.11359,46.10801 -2.70773,94.87443 -0.74934,141.42482 265.13173,1.78703 530.69305,0.96656 795.57256,-1.41425 1.36497,-46.53586 1.63618,-93.56753 0.0369,-140.04223 -132.43513,-3.60338 -268.14988,-1.31412 -401.87864,-2.04563 -33.91206,0.0125 -67.82412,0.0219 -101.73616,0.035 z"
     id="path8721" />
  <path
     style="fill:#99ffff;fill-opacity:1;stroke-width:1222.44"
     d="m 405.48286,440.78102 c -97.25795,0.48909 -194.72966,-0.58 -291.76782,2.06859 -1.8055,46.79711 -1.7825,94.04644 -0.26912,140.77573 255.20637,3.39269 510.92396,2.74066 766.32049,0.90113 8.80976,-1.39644 22.34749,1.78737 29.46843,-1.756 1.6006,-46.43786 1.18357,-93.46884 -0.17937,-139.97892 -132.42063,-3.60416 -268.12189,-1.31359 -401.83639,-2.04563 -33.91206,0.0125 -67.82413,0.0219 -101.73616,0.035 z"
     id="path8723" />
  <path
     style="fill:#99ffff;fill-opacity:1;stroke-width:1222.44"
     d="m 405.48286,213.82586 c -97.25795,0.48911 -194.72966,-0.57998 -291.76782,2.0686 -1.8055,46.7971 -1.7825,94.04644 -0.26912,140.77573 255.20637,3.39269 510.92396,2.74066 766.32049,0.90115 8.80976,-1.39647 22.34749,1.78735 29.46843,-1.75603 1.6006,-46.43785 1.18357,-93.46883 -0.17937,-139.9789 -132.42063,-3.60417 -268.12189,-1.31361 -401.83639,-2.04563 -33.91206,0.0116 -67.82413,0.0234 -101.73616,0.0351 z"
     id="path8725" />
</svg>
